<svg width="43px" height="42px" viewBox="0 0 43 42" version="1.1" xmlns="http://www.w3.org/2000/svg" xmlns:xlink="http://www.w3.org/1999/xlink"><title>Google + button</title><desc>Created with Sketch.</desc><defs><filter x="-50%" y="-50%" width="200%" height="200%" filterUnits="objectBoundingBox" id="filter-1"><feOffset dx="0" dy="0" in="SourceAlpha" result="shadowOffsetOuter1"/><feGaussianBlur stdDeviation="2" in="shadowOffsetOuter1" result="shadowBlurOuter1"/><feColorMatrix values="0 0 0 0 0   0 0 0 0 0   0 0 0 0 0  0 0 0 0.35 0" in="shadowBlurOuter1" type="matrix" result="shadowMatrixOuter1"/><feMerge><feMergeNode in="shadowMatrixOuter1"/><feMergeNode in="SourceGraphic"/></feMerge></filter><path id="path-2" d="M0.00321951219 0L22 0 22 17.9968966 0.00321951219 17.9968966 0.00321951219 0Z"/></defs><g id="Fotografia" stroke="none" stroke-width="1" fill="none" fill-rule="evenodd"><g id="fotografia-desktop" transform="translate(-677.000000, -412.000000)"><g id="Group" transform="translate(-2.000000, 54.000000)"><g id="Compartir" transform="translate(682.500000, 272.000000)"><g id="Google-+" transform="translate(1.000000, 90.000000)"><g id="Google-+-button"><rect id="Rectangle-127" fill="#D73D32" filter="url(#filter-1)" x="0" y="0" width="34" height="34" rx="3"/><g id="google-plus-logo" transform="translate(6.000000, 8.000000)"><mask id="mask-3" fill="white"><use xlink:href="#path-2"/></mask><g id="Clip-2"/><path d="M11.9993902 0.0518275862L6.24848293 0.0518275862C3.67035122 0.0518275862 1.24401951 1.93468966 1.24401951 4.11558621 1.24401951 6.34437931 3.00133659 8.14318966 5.62427317 8.14318966 5.80687317 8.14318966 5.984 8.13977586 6.15753171 8.12762069 5.98732683 8.44184483 5.86557561 8.79558621 5.86557561 9.16293103 5.86557561 9.78243103 6.21119024 10.2845172 6.6484 10.694431 6.31807805 10.694431 5.99929268 10.7037414 5.65131707 10.7037414 2.4580439 10.7037414 0 12.6641897 0 14.6972069 0 16.6997069 2.69467805 17.952 5.88816585 17.952 9.52879024 17.952 11.5395366 15.9608276 11.5395366 13.9583276 11.5395366 12.3528621 11.0481854 11.3913103 9.52879024 10.3556379 9.009 10.0010172 8.01502927 9.13825862 8.01502927 8.63136207 8.01502927 8.03710345 8.19086829 7.74434483 9.11878537 7.04544828 10.0697756 6.32922414 10.7430293 5.322 10.7430293 4.15075862 10.7430293 2.75601724 10.0986976 1.39681034 8.88907317 0.948465517L10.7124439 0.948465517 11.9993902 0.0518275862ZM9.99073659 13.6128103C10.0364537 13.7985 10.0611902 13.9896207 10.0611902 14.1846207 10.0611902 15.8023966 8.97964878 17.0668448 5.87646829 17.0668448 3.66911707 17.0668448 2.07486829 15.7197931 2.07486829 14.1019655 2.07486829 12.5163103 4.05229268 11.1963103 6.25959024 11.2191724 6.77460488 11.2243966 7.25479512 11.3044138 7.6905561 11.4403966 8.8886439 12.2437241 9.74825366 12.6975517 9.99073659 13.6128103L9.99073659 13.6128103ZM6.45662439 7.57805172C4.97473659 7.53543103 3.5668439 5.9802931 3.31110732 4.10508621 3.05537073 2.22925862 4.04869756 0.793913793 5.53020976 0.83637931 7.01123902 0.879413793 8.41999024 2.38422414 8.67572683 4.25963793 8.93119512 6.13546552 7.93770732 7.62087931 6.45662439 7.57805172L6.45662439 7.57805172ZM17.8576146 4.02403448L17.8576146 0.0518275862 16.4838488 0.0518275862 16.4838488 4.02403448 12.3628195 4.02403448 12.3628195 5.34827586 16.4838488 5.34827586 16.4838488 9.32074138 17.8576146 9.32074138 17.8576146 5.34827586 21.9786439 5.34827586 21.9786439 4.02403448 17.8576146 4.02403448Z" id="Fill-1" fill="#FFFFFF" mask="url(#mask-3)"/></g></g></g></g></g></g></g></svg>