<?xml version="1.0" encoding="UTF-8" standalone="no"?>
<svg width="113px" height="52px" viewBox="0 0 113 52" version="1.1" xmlns="http://www.w3.org/2000/svg" xmlns:xlink="http://www.w3.org/1999/xlink" xmlns:sketch="http://www.bohemiancoding.com/sketch/ns">
    <!-- Generator: Sketch 3.2.2 (9983) - http://www.bohemiancoding.com/sketch -->
    <title>Logo</title>
    <desc>Created with Sketch.</desc>
    <defs></defs>
    <g id="Home" stroke="none" stroke-width="1" fill="none" fill-rule="evenodd" sketch:type="MSPage">
        <g id="home-desktop" sketch:type="MSArtboardGroup" transform="translate(-570.000000, -228.000000)">
            <g id="Group" sketch:type="MSLayerGroup" transform="translate(0.000000, 55.000000)">
                <g id="Mosaico" transform="translate(61.000000, 124.000000)" sketch:type="MSShapeGroup">
                    <g id="Group">
                        <g id="Rectangle-11-+-Logo" transform="translate(452.000000, 0.000000)">
                            <g id="Logo" transform="translate(57.000000, 49.000000)">
                                <path d="M112.931645,49.5662295 C112.931645,50.9103443 111.784129,52 110.368318,52 L87.1627316,52 C85.7471342,52 84.5994045,50.9103443 84.5994045,49.5662295 L84.5994045,40.4227541 C84.5994045,39.0786393 85.7471342,37.9889836 87.1627316,37.9889836 L110.368318,37.9889836 C111.784129,37.9889836 112.931645,39.0786393 112.931645,40.4227541 L112.931645,49.5662295" id="Fill-1" fill="#FFFFFF"></path>
                                <path d="M34.0012514,35.4049672 L34.0012514,11.7777869 L47.1936276,11.7777869 L47.1936276,15.0384426 L37.8447467,15.0384426 L37.8447467,20.9278689 L47.1936276,20.9278689 L47.1936276,24.3014754 L37.8447467,24.3014754 L37.8447467,35.4049672 L34.0012514,35.4049672" id="Fill-2" fill="#FFFFFF"></path>
                                <path d="M82.5861248,15.0384426 L82.5861248,35.4049672 L78.7430567,35.4049672 L78.7430567,15.0384426 L72.4622647,15.0384426 L72.4622647,11.7777869 L88.8346616,11.7777869 L88.8346616,15.0384426 L82.5861248,15.0384426" id="Fill-3" fill="#FFFFFF"></path>
                                <path d="M108.89355,23.6403934 C108.89355,22.4998033 108.686561,21.4161148 108.269166,20.3878361 C107.853694,19.360623 107.253875,18.4455082 106.472915,17.644623 C105.711607,16.853541 104.830036,16.2450984 103.829057,15.8180164 C102.825728,15.392 101.769637,15.1780328 100.659503,15.1780328 C99.5495822,15.1780328 98.4932779,15.3894426 97.491017,15.8103443 C96.4889698,16.2318852 95.5958639,16.8426721 94.815758,17.644623 C94.0333025,18.435918 93.4375425,19.3454918 93.0267694,20.372918 C92.6147146,21.4001311 92.4096484,22.4895738 92.4096484,23.6403934 C92.4096484,24.7807705 92.6147146,25.8593443 93.0267694,26.8761148 C93.4375425,27.8935246 94.0333025,28.8033115 94.815758,29.6044098 C95.5958639,30.4061475 96.4851248,31.0171475 97.4831134,31.4380492 C98.4802476,31.8606557 99.5389017,32.071 100.659503,32.071 C101.758743,32.071 102.805862,31.8606557 103.797015,31.4380492 C104.789236,31.0171475 105.68106,30.4061475 106.472915,29.6044098 C107.253875,28.8033115 107.853694,27.8909672 108.269166,26.8688689 C108.686561,25.8469836 108.89355,24.7701148 108.89355,23.6403934 L108.89355,23.6403934 Z M112.718248,23.6403934 C112.718248,25.242377 112.417698,26.7593279 111.81617,28.1863443 C111.214856,29.6148525 110.337985,30.8890656 109.187265,32.0089836 C108.025009,33.1291148 106.715363,33.9877541 105.254694,34.583623 C103.795306,35.1790656 102.263291,35.4761475 100.659503,35.4761475 C99.0345671,35.4761475 97.4850359,35.1758689 96.010482,34.5755246 C94.5350737,33.9743279 93.2320491,33.118459 92.1018355,32.0089836 C90.9500473,30.8890656 90.0761664,29.6201803 89.4799792,28.2021148 C88.8837921,26.7840492 88.5858053,25.2634754 88.5858053,23.6403934 C88.5858053,22.0271148 88.8837921,20.5063279 89.4799792,19.0786721 C90.0761664,17.6497377 90.9500473,16.3708361 92.1018355,15.2400492 C93.2523422,14.1207705 94.5581437,13.2676721 96.0183856,12.6816066 C97.4775595,12.0959672 99.0243138,11.8027213 100.659503,11.8027213 C102.283371,11.8027213 103.823716,12.0959672 105.277764,12.6816066 C106.731597,13.2676721 108.03569,14.1207705 109.187265,15.2400492 C110.337985,16.3802131 111.214856,17.6674262 111.81617,19.1008361 C112.417698,20.5346721 112.718248,22.0473607 112.718248,23.6403934 L112.718248,23.6403934 Z" id="Fill-4" fill="#FFFFFF"></path>
                                <path d="M61.1359905,6.57544262 C63.1142382,6.57544262 65.0980397,6.52621311 67.073724,6.60932787 C67.5404631,6.63042623 67.9871229,7.10098361 68.4418998,7.36418033 C68.0475747,7.62588525 67.655172,8.1047541 67.2570019,8.10965574 C62.9935482,8.16804918 58.7275312,8.17593443 54.4653592,8.12180328 C54.0943176,8.11477049 53.7305388,7.58795082 53.3633422,7.30195082 C53.7452779,7.06006557 54.1218733,6.62254098 54.5127807,6.60932787 C56.7187372,6.54219672 58.9283251,6.57629508 61.1359905,6.57544262" id="Fill-5" fill="#FFFFFF"></path>
                                <path d="M83.0430378,6.552 C83.002879,5.91159016 82.5752306,4.73945902 82.2206371,4.35052459 C81.3809338,3.42922951 76.6851323,3.31713115 75.8855879,4.38227869 C75.5940095,4.77057377 75.3475028,5.20660656 75.2624858,5.8037541 C75.0745085,5.54695082 75.0091437,5.28418033 74.894862,5.02844262 C73.4730699,1.8662459 71.2299452,0.230803279 68.4361323,0.144065574 C66.4531853,0.0826885246 64.1056049,0.0193934426 61.7146616,0.0193934426 C58.8396767,0.0193934426 56.3043327,0.112311475 53.9648696,0.302836066 C52.2183894,0.446262295 49.7185047,1.57790164 49.0236295,3.58544262 C48.2956446,5.68803279 47.1801701,6.4552459 45.5287467,6.4552459 C45.0769603,6.4552459 40.9999887,6.39770492 40.748569,6.39770492 C37.2054102,6.39770492 34.8715009,7.50845902 33.8592004,9.43032787 L50.2508223,9.43032787 L51.0144802,9.43032787 C51.7431059,4.33837705 52.8726786,3.56114754 57.5947543,3.55880328 C60.3253384,3.55581967 63.0557089,3.55347541 65.7865066,3.56029508 C69.8895388,3.56839344 71.2145652,4.58132787 71.6956163,8.81527869 L71.7658941,9.43032787 L88.8957543,9.43032787 C88.8957543,9.43032787 87.8052722,6.552 83.0430378,6.552" id="Fill-6" fill="#FFFFFF"></path>
                                <path d="M0,37.9889836 L0.733965974,38.940541 C1.82402079,40.3537049 3.39534026,41.1085574 5.27746314,41.128377 C9.74128355,41.1699344 23.9335709,41.197 41.4344726,41.197 C58.6136767,41.197 72.6100832,41.1718525 77.0941966,41.132 C78.8947202,41.1147377 80.5025671,40.3398525 81.618896,38.9494918 L82.3906711,37.9889836 L0,37.9889836" id="Fill-7" fill="#FFFFFF"></path>
                                <path d="M7.01710775,45.1794754 C6.72531569,44.9103115 6.39550095,44.7008197 6.02702268,44.5518525 C5.65875803,44.4028852 5.27404537,44.3287213 4.87331191,44.3287213 C4.00519849,44.3287213 3.23961815,44.6398689 2.57635728,45.2619508 C1.9128828,45.8840328 1.58093195,46.6708525 1.58093195,47.624541 C1.58093195,48.5918689 1.91800945,49.383377 2.59237807,49.9982131 C3.2669603,50.612623 4.02698677,50.9201475 4.87331191,50.9201475 C5.33257467,50.9201475 5.74462949,50.8395902 6.10926276,50.679541 C6.47389603,50.5203443 6.80200189,50.3055246 7.09379395,50.035082 L7.76089981,50.7888689 C7.43279395,51.0868033 7.04466352,51.3329508 6.59586767,51.5256066 C6.14771267,51.7182623 5.68973157,51.8367541 5.22320605,51.8802295 C5.16467675,51.8802295 5.10657467,51.881082 5.04804537,51.8857705 C4.98972968,51.888541 4.9316276,51.890459 4.87331191,51.890459 C3.56772401,51.890459 2.53769376,51.4940656 1.78343478,50.7014918 C1.02853497,49.9093443 0.596400756,49.0315246 0.487032136,48.0716557 C0.479769376,47.9985574 0.47400189,47.9243934 0.470797732,47.8476721 C0.46673913,47.7705246 0.465243856,47.6967869 0.465243856,47.624541 C0.465243856,47.5512295 0.46673913,47.4764262 0.470797732,47.4003443 C0.47400189,47.3244754 0.479769376,47.249459 0.487032136,47.1763607 C0.596400756,46.2164918 1.02853497,45.3378197 1.78343478,44.541623 C2.53769376,43.7445738 3.56772401,43.345623 4.87331191,43.345623 C5.42720416,43.345623 5.95802647,43.4464262 6.46471078,43.646541 C6.97118147,43.8464426 7.39242155,44.0991967 7.72800378,44.4048033 L7.01710775,45.1794754" id="Fill-8" fill="#FFFFFF"></path>
                                <path d="M10.6978318,50.0082295 C11.372414,50.616459 12.1322268,50.9201475 12.978552,50.9201475 C13.8242363,50.9201475 14.58469,50.616459 15.2592722,50.0082295 C15.9334272,49.4010656 16.2707183,48.6057213 16.2707183,47.624541 C16.2707183,46.6414426 15.9334272,45.8469508 15.2592722,45.2397869 C14.58469,44.6324098 13.8242363,44.3287213 12.978552,44.3287213 C12.1322268,44.3287213 11.372414,44.6324098 10.6978318,45.2397869 C10.0230359,45.8469508 9.68638563,46.6414426 9.68638563,47.624541 C9.68638563,48.6057213 10.0230359,49.4010656 10.6978318,50.0082295 L10.6978318,50.0082295 Z M8.57603781,47.4003443 C8.57945558,47.3244754 8.58479584,47.249459 8.59227221,47.1763607 C8.70185444,46.2164918 9.13377505,45.3378197 9.88846125,44.541623 C10.6429338,43.7445738 11.6729641,43.345623 12.978552,43.345623 C14.2837127,43.345623 15.3135293,43.7445738 16.0684291,44.541623 C16.8233289,45.3378197 17.2552495,46.2164918 17.3648318,47.1763607 C17.3716673,47.249459 17.3772212,47.3244754 17.3810662,47.4003443 C17.3846975,47.4764262 17.38662,47.5512295 17.38662,47.624541 C17.38662,47.6967869 17.3846975,47.7705246 17.3810662,47.8476721 C17.3772212,47.9243934 17.3716673,47.9985574 17.3648318,48.0716557 C17.2552495,49.0315246 16.8233289,49.9093443 16.0684291,50.7014918 C15.3135293,51.4940656 14.2837127,51.890459 12.978552,51.890459 C11.6729641,51.890459 10.6429338,51.4940656 9.88846125,50.7014918 C9.13377505,49.9093443 8.70185444,49.0315246 8.59227221,48.0716557 C8.58479584,47.9985574 8.57945558,47.9243934 8.57603781,47.8476721 C8.5717656,47.7705246 8.57048393,47.6967869 8.57048393,47.624541 C8.57048393,47.5512295 8.5717656,47.4764262 8.57603781,47.4003443 L8.57603781,47.4003443 Z" id="Fill-9" fill="#FFFFFF"></path>
                                <path d="M24.1894764,43.4771148 L25.2400132,43.4771148 L25.2400132,51.7709016 L24.2552684,51.7709016 L19.7927297,45.3546557 L19.7707278,45.3546557 L19.7707278,51.7709016 L18.7204045,51.7709016 L18.7204045,43.4771148 L19.7049357,43.4771148 L24.1676881,49.8944262 L24.1894764,49.8944262 L24.1894764,43.4771148" id="Fill-10" fill="#FFFFFF"></path>
                                <path d="M29.702552,43.4771148 L34.0012514,43.4771148 L34.0012514,44.4591475 L30.7526616,44.4591475 L30.7526616,47.0894098 L34.0012514,47.0894098 L34.0012514,48.0716557 L30.7526616,48.0716557 L30.7526616,50.7888689 L34.0012514,50.7888689 L34.0012514,51.7709016 L29.702552,51.7709016 L29.702552,43.4771148" id="Fill-11" fill="#FFFFFF"></path>
                                <path d="M35.3794669,43.4771148 L36.4295766,43.4771148 L36.4295766,50.7888689 L39.3500605,50.7888689 L39.3500605,51.7709016 L35.3794669,51.7709016 L35.3794669,43.4771148" id="Fill-12" fill="#FFFFFF"></path>
                                <path d="M47.6738242,47.1987377 L51.8629414,47.1987377 C51.8629414,48.6901148 51.4235444,49.8443443 50.5449641,50.6627049 C49.6661701,51.4812787 48.6436163,51.890459 47.4766616,51.890459 C46.1715009,51.890459 45.1416843,51.4940656 44.3867845,50.7014918 C43.6318847,49.9093443 43.1999641,49.0315246 43.0905955,48.0716557 C43.0835463,47.9985574 43.0779924,47.9243934 43.0741474,47.8476721 C43.0705161,47.7705246 43.0688072,47.6967869 43.0688072,47.624541 C43.0688072,47.5512295 43.0705161,47.4764262 43.0741474,47.4003443 C43.0779924,47.3244754 43.0835463,47.249459 43.0905955,47.1763607 C43.1999641,46.2164918 43.6318847,45.3378197 44.3867845,44.541623 C45.1416843,43.7445738 46.1715009,43.345623 47.4766616,43.345623 C47.965189,43.345623 48.4539301,43.4280984 48.9428847,43.5917705 C49.4309849,43.7548033 49.9199395,44.0482623 50.4084669,44.4704426 L49.7413611,45.2564098 C49.5441985,45.0675902 49.3312287,44.9083934 49.1009565,44.781377 C48.8713251,44.6545738 48.6361399,44.5548361 48.395828,44.4806721 C48.2426692,44.4308033 48.0878015,44.3918033 47.9310113,44.3666557 C47.7740076,44.3417213 47.6227713,44.3287213 47.4766616,44.3287213 C46.609189,44.3287213 45.8431815,44.6398689 45.179707,45.2619508 C44.5162325,45.8840328 44.1844953,46.6708525 44.1844953,47.624541 C44.1844953,48.5918689 44.5217864,49.383377 45.1963686,49.9982131 C45.8705236,50.612623 46.6309773,50.9201475 47.4766616,50.9201475 C48.2279301,50.9201475 48.9116975,50.679541 49.5279641,50.1998197 C50.144017,49.719459 50.5398374,49.0464426 50.7147845,48.1797049 L47.6738242,48.1797049 L47.6738242,47.1987377" id="Fill-13" fill="#FFFFFF"></path>
                                <path d="M56.94431,42.2176066 C57.0786711,42.0833443 57.2410151,42.0157869 57.4309149,42.0157869 C57.6201739,42.0157869 57.782518,42.0833443 57.9175198,42.2176066 C58.0520945,42.3518689 58.1198091,42.513623 58.1198091,42.7035082 C58.1198091,42.8923279 58.0520945,43.0534426 57.9175198,43.1885574 C57.782518,43.3236721 57.6201739,43.3905902 57.4309149,43.3905902 C57.2410151,43.3905902 57.0786711,43.3236721 56.94431,43.1885574 C56.8090945,43.0534426 56.74138,42.8923279 56.74138,42.7035082 C56.74138,42.513623 56.8090945,42.3518689 56.94431,42.2176066 L56.94431,42.2176066 Z M54.909242,42.2176066 C55.0442439,42.0833443 55.2065879,42.0157869 55.3962741,42.0157869 C55.5857467,42.0157869 55.7480907,42.0833443 55.8830926,42.2176066 C56.0176673,42.3518689 56.0853819,42.513623 56.0853819,42.7035082 C56.0853819,42.8923279 56.0176673,43.0534426 55.8830926,43.1885574 C55.7480907,43.3236721 55.5857467,43.3905902 55.3962741,43.3905902 C55.2065879,43.3905902 55.0442439,43.3236721 54.909242,43.1885574 C54.7742401,43.0534426 54.7069527,42.8923279 54.7069527,42.7035082 C54.7069527,42.513623 54.7742401,42.3518689 54.909242,42.2176066 L54.909242,42.2176066 Z M53.1535766,43.4771148 L54.2038998,43.4771148 L54.2038998,48.4539836 C54.2038998,49.1295574 54.3901682,49.710082 54.7616371,50.1944918 C55.1337467,50.677623 55.6840076,50.9201475 56.4134877,50.9201475 C57.1427543,50.9201475 57.6934423,50.677623 58.0651248,50.1944918 C58.4372344,49.710082 58.622862,49.1295574 58.622862,48.4539836 L58.622862,43.4771148 L59.6736125,43.4771148 L59.6736125,48.759377 C59.6736125,49.6536066 59.3672949,50.3997213 58.7540189,50.9960164 C58.1415974,51.5920984 57.3544423,51.890459 56.3916994,51.890459 C55.4507448,51.890459 54.6757656,51.5920984 54.067189,50.9960164 C53.4583989,50.3997213 53.1535766,49.6536066 53.1535766,48.759377 L53.1535766,43.4771148 L53.1535766,43.4771148 Z" id="Fill-14" fill="#FFFFFF"></path>
                                <path d="M61.2919263,43.4771148 L65.5899849,43.4771148 L65.5899849,44.4591475 L62.3422495,44.4591475 L62.3422495,47.0894098 L65.5899849,47.0894098 L65.5899849,48.0716557 L62.3422495,48.0716557 L62.3422495,50.7888689 L65.5899849,50.7888689 L65.5899849,51.7709016 L61.2919263,51.7709016 L61.2919263,43.4771148" id="Fill-15" fill="#FFFFFF"></path>
                                <path d="M68.0191645,47.5912951 C68.0915784,47.598541 68.1844991,47.6021639 68.2974991,47.6021639 L68.9379036,47.6021639 C69.7395841,47.6021639 70.3009527,47.4476557 70.6220095,47.1384262 C70.9430662,46.8291967 71.1037013,46.4485738 71.1037013,45.9978361 C71.1037013,45.5100164 70.9458431,45.1212951 70.6331172,44.8306066 C70.3195369,44.5397049 69.889966,44.3937213 69.342482,44.3937213 L68.0191645,44.3937213 L68.0191645,47.5912951 L68.0191645,47.5912951 Z M68.0191645,48.235541 L68.0191645,51.7709016 L66.9688412,51.7709016 L66.9688412,43.4771148 L69.3646975,43.4771148 C70.1663781,43.4771148 70.8315614,43.6955574 71.3606749,44.1324426 C71.8887202,44.5684754 72.1540246,45.1869344 72.1540246,45.9876066 C72.1540246,46.7292459 71.9015369,47.3189344 71.3986975,47.7549672 C70.8956446,48.191 70.3045841,48.4279836 69.6263705,48.464 L72.864707,51.7709016 L71.3875898,51.7709016 L68.0191645,48.235541 L68.0191645,48.235541 Z" id="Fill-16" fill="#FFFFFF"></path>
                                <path d="M75.70231,50.0082295 C76.3768922,50.616459 77.1369187,50.9201475 77.9830302,50.9201475 C78.8293554,50.9201475 79.5891682,50.616459 80.2639641,50.0082295 C80.9374783,49.4010656 81.2751966,48.6057213 81.2751966,47.624541 C81.2751966,46.6414426 80.9374783,45.8469508 80.2639641,45.2397869 C79.5891682,44.6324098 78.8293554,44.3287213 77.9830302,44.3287213 C77.1369187,44.3287213 76.3768922,44.6324098 75.70231,45.2397869 C75.0277278,45.8469508 74.6908639,46.6414426 74.6908639,47.624541 C74.6908639,48.6057213 75.0277278,49.4010656 75.70231,50.0082295 L75.70231,50.0082295 Z M73.5809433,47.4003443 C73.5839338,47.3244754 73.5892741,47.249459 73.5969641,47.1763607 C73.7063327,46.2164918 74.1378261,45.3378197 74.8931531,44.541623 C75.6474121,43.7445738 76.6774423,43.345623 77.9830302,43.345623 C79.2877637,43.345623 80.3175803,43.7445738 81.073121,44.541623 C81.828448,45.3378197 82.2597278,46.2164918 82.36931,47.1763607 C82.3757183,47.249459 82.3814858,47.3244754 82.3851172,47.4003443 C82.3887486,47.4764262 82.3906711,47.5512295 82.3906711,47.624541 C82.3906711,47.6967869 82.3887486,47.7705246 82.3851172,47.8476721 C82.3814858,47.9243934 82.3757183,47.9985574 82.36931,48.0716557 C82.2597278,49.0315246 81.828448,49.9093443 81.073121,50.7014918 C80.3175803,51.4940656 79.2877637,51.890459 77.9830302,51.890459 C76.6774423,51.890459 75.6474121,51.4940656 74.8931531,50.7014918 C74.1378261,49.9093443 73.7063327,49.0315246 73.5969641,48.0716557 C73.5892741,47.9985574 73.5839338,47.9243934 73.5809433,47.8476721 C73.5764575,47.7705246 73.575603,47.6967869 73.575603,47.624541 C73.575603,47.5512295 73.5764575,47.4764262 73.5809433,47.4003443 L73.5809433,47.4003443 Z" id="Fill-17" fill="#FFFFFF"></path>
                                <path d="M85.8917486,47.149082 L87.1270586,47.149082 L87.1270586,48.4654918 L85.8917486,48.4654918 L85.8917486,47.149082 Z" id="Fill-18" fill="#96C400"></path>
                                <path d="M95.1368147,43.5363607 L93.4554858,43.5363607 C93.2564008,43.2646393 93.0190794,43.0632459 92.7448034,42.9283443 C92.4688185,42.792377 92.1563062,42.7267377 91.8055577,42.7267377 C91.5225236,42.7267377 91.2535879,42.7780984 90.9993913,42.8846557 C90.7456219,42.9912131 90.5189811,43.1452951 90.3233138,43.3469016 C90.113121,43.5591639 89.9524858,43.8033934 89.8382042,44.0806557 C89.7230681,44.359623 89.6673157,44.643918 89.6673157,44.9375902 C89.6673157,45.5771475 89.8738771,46.1171803 90.287,46.5519344 C90.6999093,46.9877541 91.2059527,47.2055574 91.8055577,47.2055574 C92.1490435,47.2055574 92.4596333,47.1407705 92.7339093,47.0122623 C93.0096805,46.8829016 93.23269,46.6977049 93.4025104,46.4543279 L95.0872571,46.4543279 C94.7595784,47.1710328 94.322104,47.708082 93.77462,48.0678197 C93.2279905,48.4271311 92.5747694,48.6067869 91.8147429,48.6067869 C91.2862703,48.6067869 90.8005198,48.5055574 90.3545009,48.3030984 C89.908482,48.1006393 89.5083894,47.7999344 89.1548639,47.4026885 C88.8560227,47.0723607 88.6295955,46.6953607 88.4732325,46.2738197 C88.3202873,45.8492951 88.2418922,45.3989836 88.2418922,44.9184098 C88.2418922,44.4295246 88.3352401,43.9655738 88.5217221,43.5269836 C88.709913,43.089459 88.9829074,42.6905082 89.3430548,42.3309836 C89.6848318,41.9966066 90.0631361,41.7442787 90.4805312,41.5718689 C90.8962174,41.3996721 91.3452268,41.3154918 91.8256371,41.3154918 C92.5929263,41.3154918 93.2510605,41.496 93.7972628,41.863623 C94.3421834,42.2308197 94.7896975,42.7859836 95.1368147,43.5363607" id="Fill-19" fill="#96C400"></path>
                                <path d="M97.1016049,44.8973115 C97.1016049,45.199082 97.1507353,45.481459 97.2515595,45.7406066 C97.3502476,46.0003934 97.4980662,46.2382295 97.6935198,46.4543279 C97.910121,46.6887541 98.1540643,46.8673443 98.4281267,46.9960656 C98.702189,47.1224426 98.9835142,47.1853115 99.2778696,47.1853115 C99.8917864,47.1853115 100.408938,46.9685738 100.825692,46.5310492 C101.242446,46.0952295 101.448794,45.5492295 101.448794,44.8973115 C101.448794,44.3001639 101.239883,43.7916721 100.820138,43.3688525 C100.399966,42.9473115 99.8966994,42.7352623 99.3062798,42.7352623 C98.6921493,42.7352623 98.1715803,42.9458197 97.7428639,43.3665082 C97.3152155,43.7869836 97.1016049,44.298459 97.1016049,44.8973115 L97.1016049,44.8973115 Z M95.657811,44.9459016 C95.657811,44.562082 95.7088639,44.1953115 95.811397,43.8553934 C95.9152117,43.5124918 96.0670888,43.195377 96.2708733,42.894459 C96.6179905,42.389377 97.0548242,42.0004426 97.5783837,41.7259508 C98.1027977,41.4523115 98.6757013,41.3154918 99.2970945,41.3154918 C99.7640473,41.3154918 100.213698,41.4041475 100.646686,41.5844426 C101.07818,41.7643115 101.46631,42.0223934 101.807233,42.3593279 C102.157981,42.7092623 102.426062,43.1033115 102.607845,43.5399836 C102.791764,43.9758033 102.883616,44.4371967 102.883616,44.9184098 C102.883616,45.4188033 102.797745,45.8882951 102.626002,46.3296557 C102.454259,46.7697377 102.200062,47.1588852 101.865548,47.4998689 C101.526762,47.8555574 101.133718,48.1289836 100.685136,48.3188689 C100.235486,48.5110984 99.7676786,48.6067869 99.2778696,48.6067869 C98.7534556,48.6067869 98.2709093,48.5125902 97.8295898,48.3286721 C97.3884839,48.1398525 96.9982174,47.8649344 96.6572949,47.4998689 C96.3285482,47.1516393 96.0799055,46.7616393 95.9100851,46.3305082 C95.7419735,45.9000164 95.657811,45.4379836 95.657811,44.9459016 L95.657811,44.9459016 Z" id="Fill-20" fill="#96C400"></path>
                                <path d="M105.109439,48.4654918 L103.747885,48.4654918 L103.747885,41.453377 L105.56806,41.453377 L107.354486,46.5536393 L109.135571,41.453377 L110.955319,41.453377 L110.955319,48.4654918 L109.599533,48.4654918 L109.646955,43.3767377 L107.868647,48.4654918 L106.832635,48.4654918 L105.050696,43.3767377 L105.109439,48.4654918" id="Fill-21" fill="#96C400"></path>
                                <path d="M31.7589811,29.7288689 C31.7589811,32.943918 29.0659924,35.5490328 25.7456295,35.5490328 L6.32500945,35.5490328 C3.00379206,35.5490328 0.311871456,32.943918 0.311871456,29.7288689 L0.311871456,12.2155246 C0.311871456,9.00154098 3.00379206,6.39642623 6.32500945,6.39642623 L25.7456295,6.39642623 C29.0659924,6.39642623 31.7589811,9.00154098 31.7589811,12.2155246 L31.7589811,29.7288689" id="Fill-22" fill="#FFFFFF"></path>
                                <path d="M14.0720246,11.5695738 L14.0720246,15.0834098 L10.4438488,15.0834098 L10.4438488,31.5586721 L6.68216635,31.5586721 L6.68216635,15.0834098 L3.0529225,15.0834098 L3.0529225,11.5695738 L14.0720246,11.5695738" id="Fill-23" fill="#96C400"></path>
                                <path d="M15.8473422,11.5695738 L19.6216276,11.5695738 L19.6216276,23.1018525 C19.6216276,24.9033115 19.8053327,26.5822295 20.1723157,27.2825246 C20.5382306,27.9838852 21.1675274,28.3329672 22.0597788,28.3329672 C22.9501078,28.3329672 23.5794045,27.9838852 23.9455331,27.2825246 C24.3125161,26.5822295 24.4962212,24.9033115 24.4962212,23.1018525 L24.4962212,11.5695738 L28.2705066,11.5695738 L28.2705066,24.2548033 C28.2705066,25.6649836 28.1955293,26.7216066 28.0453611,27.426377 C27.8951928,28.1313607 27.6433459,28.7487541 27.2902476,29.2804754 C26.6891474,30.195377 25.9654348,30.8700984 25.1186824,31.3037869 C24.2704348,31.7387541 23.2504442,31.9567705 22.0597788,31.9567705 C20.8665501,31.9567705 19.847414,31.7387541 18.9991664,31.3037869 C18.1509187,30.8700984 17.4274197,30.195377 16.8273875,29.2804754 C16.4732212,28.7487541 16.2230832,28.1528852 16.0722741,27.4952131 C15.9225331,26.8366885 15.8473422,25.7559836 15.8473422,24.2548033 L15.8473422,11.5695738" id="Fill-24" fill="#96C400"></path>
                                <path d="M54.921845,24.5697869 C54.921845,20.2900164 58.617949,16.8205082 63.1770397,16.8205082 C63.5433819,16.8205082 63.9035293,16.8454426 64.2568412,16.8887049 C63.4261096,16.5732951 62.5191191,16.3979016 61.5679112,16.3979016 C57.6041531,16.3979016 54.3910227,19.4141148 54.3910227,23.1346721 C54.3910227,24.1493115 54.6315482,25.1106721 55.0596238,25.9737869 C54.9707618,25.5181475 54.921845,25.0495082 54.921845,24.5697869" id="Fill-25" fill="#FFFFFF"></path>
                                <path d="M69.4838922,23.617377 C69.4838922,22.4780656 69.2762628,21.3952295 68.8597221,20.3680164 C68.4446767,19.3418689 67.8452854,18.4276066 67.0658204,17.6275738 C66.3053667,16.8371311 65.4242231,16.2291148 64.4236711,15.8026721 C63.4218374,15.377082 62.3663875,15.1633279 61.2568941,15.1633279 C60.1486824,15.1633279 59.0934461,15.3745246 58.0913989,15.7947869 C57.090206,16.2159016 56.1990227,16.8264754 55.4187032,17.6275738 C54.6383837,18.4180164 54.0424102,19.3267377 53.6314234,20.3533115 C53.2208639,21.379459 53.0153705,22.4674098 53.0153705,23.617377 C53.0153705,24.7569016 53.2208639,25.8344098 53.6314234,26.8501148 C54.0424102,27.8666721 54.6383837,28.7758197 55.4187032,29.5758525 C56.1990227,30.3767377 57.0874291,30.9873115 58.0839225,31.4075738 C59.0802023,31.8299672 60.1382155,32.0400984 61.2568941,32.0400984 C62.3563478,32.0400984 63.4015444,31.8299672 64.3931248,31.4075738 C65.3832098,30.9873115 66.2741796,30.3767377 67.0658204,29.5758525 C67.8452854,28.7758197 68.4446767,27.8641148 68.8597221,26.843082 C69.2762628,25.8220492 69.4838922,24.7462459 69.4838922,23.617377 L69.4838922,23.617377 Z M73.3047448,23.617377 C73.3047448,25.2178689 73.0041947,26.733541 72.4033081,28.1590656 C71.8026352,29.5862951 70.9268318,30.8590164 69.776966,31.9782951 C68.6159924,33.0971475 67.3061323,33.9545082 65.8484537,34.5497377 C64.3901342,35.1451803 62.859828,35.4420492 61.2568941,35.4420492 C59.6338809,35.4420492 58.0862722,35.1417705 56.6123592,34.5420656 C55.1384461,33.9415082 53.837344,33.0867049 52.7075577,31.9782951 C51.5574783,30.8590164 50.683811,29.591623 50.0882647,28.1750492 C49.4927183,26.7582623 49.1947316,25.2389672 49.1947316,23.617377 C49.1947316,22.0055902 49.4927183,20.4867213 50.0882647,19.0601311 C50.683811,17.6326885 51.5574783,16.3546393 52.7075577,15.2251311 C53.8576371,14.106918 55.1619433,13.254459 56.6204764,12.6690328 C58.0783686,12.0842459 59.6242684,11.791 61.2568941,11.791 C62.8803346,11.791 64.4185444,12.0842459 65.8710964,12.6690328 C67.3240756,13.254459 68.6264594,14.106918 69.776966,15.2251311 C70.9268318,16.3644426 71.8026352,17.650377 72.4033081,19.082082 C73.0041947,20.5146393 73.3047448,22.0260492 73.3047448,23.617377 L73.3047448,23.617377 Z" id="Fill-26" fill="#FFFFFF"></path>
                            </g>
                        </g>
                    </g>
                </g>
            </g>
        </g>
    </g>
</svg>