<?xml version="1.0" encoding="UTF-8" standalone="no"?>
<svg width="41px" height="40px" viewBox="0 0 41 40" version="1.1" xmlns="http://www.w3.org/2000/svg" xmlns:xlink="http://www.w3.org/1999/xlink" xmlns:sketch="http://www.bohemiancoding.com/sketch/ns">
    <!-- Generator: Sketch 3.2.2 (9983) - http://www.bohemiancoding.com/sketch -->
    <title>Share button</title>
    <desc>Created with Sketch.</desc>
    <defs>
        <filter x="-50%" y="-50%" width="200%" height="200%" filterUnits="objectBoundingBox" id="filter-1">
            <feOffset dx="0" dy="0" in="SourceAlpha" result="shadowOffsetOuter1"></feOffset>
            <feGaussianBlur stdDeviation="1.5" in="shadowOffsetOuter1" result="shadowBlurOuter1"></feGaussianBlur>
            <feColorMatrix values="0 0 0 0 0   0 0 0 0 0   0 0 0 0 0  0 0 0 0.35 0" in="shadowBlurOuter1" type="matrix" result="shadowMatrixOuter1"></feColorMatrix>
            <feMerge>
                <feMergeNode in="shadowMatrixOuter1"></feMergeNode>
                <feMergeNode in="SourceGraphic"></feMergeNode>
            </feMerge>
        </filter>
    </defs>
    <g id="Fotografia" stroke="none" stroke-width="1" fill="none" fill-rule="evenodd" sketch:type="MSPage">
        <g id="fotografia-desktop" sketch:type="MSArtboardGroup" transform="translate(-678.000000, -560.000000)">
            <g id="Group" sketch:type="MSLayerGroup" transform="translate(-2.000000, 54.000000)">
                <g id="Compartir" transform="translate(682.500000, 272.000000)" sketch:type="MSShapeGroup">
                    <g id="Enviar-por-correo" transform="translate(1.000000, 237.000000)">
                        <g id="Share-button">
                            <rect id="Rectangle-106" fill="#767676" filter="url(#filter-1)" x="0" y="0" width="34" height="34" rx="3"></rect>
                            <g id="Icono" transform="translate(6.000000, 6.000000)" stroke="#FFFFFF">
                                <g id="Sobre">
                                    <path d="M21.3374023,6.43798828 L13.2900366,6.43798828 L13.2900366,14.6196372 L21.3573101,14.6196372" id="Path-36"></path>
                                    <path d="M4.81640625,9.5 L11.2164238,9.5" id="Path-38"></path>
                                    <path d="M7.515625,11.5 L11.0444336,11.5" id="Path-39"></path>
                                    <path d="M6.48388672,6.5 L11.0097348,6.5" id="Path-39"></path>
                                    <path d="M21.2501194,7 L21.4641016,7 L21.3347778,7.22399533 C21.7651577,8.40161011 22,9.67337988 22,11 C22,17.0751322 17.0751322,22 11,22 C4.92486775,22 0,17.0751322 0,11 C0,4.92486775 4.92486775,0 11,0 C15.6639649,0 19.6499812,2.90264314 21.2501194,7 Z M21.2501194,7 L18,7 L14.5358984,7 L16.2679492,10 L18,13 L19.7320508,10 L21.3347778,7.22399533 C21.3073492,7.1489444 21.2791263,7.0742759 21.2501194,7 Z" id="Star-1"></path>
                                    <circle id="Oval-28" stroke-width="2" cx="11" cy="11" r="11"></circle>
                                </g>
                            </g>
                        </g>
                    </g>
                </g>
            </g>
        </g>
    </g>
</svg>