<svg width="43px" height="42px" viewBox="0 0 43 42" version="1.1" xmlns="http://www.w3.org/2000/svg" xmlns:xlink="http://www.w3.org/1999/xlink"><title>Twitter button</title><desc>Created with Sketch.</desc><defs><filter x="-50%" y="-50%" width="200%" height="200%" filterUnits="objectBoundingBox" id="filter-1"><feOffset dx="0" dy="0" in="SourceAlpha" result="shadowOffsetOuter1"/><feGaussianBlur stdDeviation="2" in="shadowOffsetOuter1" result="shadowBlurOuter1"/><feColorMatrix values="0 0 0 0 0   0 0 0 0 0   0 0 0 0 0  0 0 0 0.35 0" in="shadowBlurOuter1" type="matrix" result="shadowMatrixOuter1"/><feMerge><feMergeNode in="shadowMatrixOuter1"/><feMergeNode in="SourceGraphic"/></feMerge></filter><path id="path-2" d="M0.00321951219 0L22 0 22 17.9967761 0.00321951219 17.9967761 0.00321951219 0Z"/></defs><g id="Fotografia" stroke="none" stroke-width="1" fill="none" fill-rule="evenodd"><g id="fotografia-desktop" transform="translate(-677.000000, -461.000000)"><g id="Group" transform="translate(-2.000000, 54.000000)"><g id="Compartir" transform="translate(682.500000, 272.000000)"><g id="Twitter" transform="translate(1.000000, 139.000000)"><g id="Twitter-button"><rect id="Rectangle-126" fill="#51A3E2" filter="url(#filter-1)" x="0" y="0" width="34" height="34" rx="3"/><g id="twitter-logo" transform="translate(6.000000, 8.000000)"><mask id="mask-3" fill="white"><use xlink:href="#path-2"/></mask><g id="Clip-2"/><path d="M21.9786439 2.15817313C21.1699561 2.5172597 20.3009561 2.76012537 19.388761 2.86925373 20.3196293 2.3103403 21.0347902 1.42565373 21.3713902 0.371176119 20.5000829 0.888555224 19.5350878 1.2644597 18.5080098 1.46675821 17.6855317 0.58921791 16.5136293 0.0409970149 15.2165951 0.0409970149 12.7263024 0.0409970149 10.7074 2.06263881 10.7074 4.55614925 10.7074 4.90997015 10.7472146 5.25465672 10.824161 5.58521194 7.07664878 5.39672239 3.75400488 3.59924776 1.53012683 0.867331343 1.14190732 1.53435224 0.919546341 2.30991045 0.919546341 3.1374806 0.919546341 4.70391045 1.71562439 6.08598806 2.92562439 6.8957194 2.18637073 6.87223881 1.49111707 6.6690806 0.883273171 6.33094925 0.882843902 6.34980896 0.882843902 6.36872239 0.882843902 6.38758209 0.882843902 8.57546866 2.43706341 10.4002388 4.49975122 10.815206 4.12145854 10.9182627 3.72320488 10.9736597 3.31196585 10.9736597 3.0212439 10.9736597 2.73889268 10.9453433 2.46346341 10.8926328 3.03734146 12.6863463 4.70247317 13.9918567 6.67565854 14.0281791 5.13254634 15.2394448 3.18828293 15.9612179 1.07547805 15.9612179 0.711619512 15.9612179 0.35275122 15.9398328 0 15.8978687 1.99545366 17.1792 4.36560488 17.926603 6.91207805 17.926603 15.2059171 17.926603 19.7415122 11.0464657 19.7415122 5.0796 19.7415122 4.88396418 19.7371122 4.68918806 19.7283122 4.49548657 20.6097073 3.85887761 21.3741268 3.0636 21.9786439 2.15817313L21.9786439 2.15817313Z" id="Fill-1" fill="#FFFFFF" mask="url(#mask-3)"/></g></g></g></g></g></g></g></svg>